<?xml version="1.0" standalone="no"?><!DOCTYPE svg PUBLIC "-//W3C//DTD SVG 1.1//EN" "http://www.w3.org/Graphics/SVG/1.1/DTD/svg11.dtd"><svg t="1774007773480" class="icon" viewBox="0 0 1024 1024" version="1.1" xmlns="http://www.w3.org/2000/svg" p-id="9765" width="64" height="64" xmlns:xlink="http://www.w3.org/1999/xlink"><path d="M563.174413 716.441779H460.825587c-210.838581-9.723138-409.088256-79.32034-409.088256-203.674163V394.042979c107.15922 80.855572 284.12034 118.724638 460.211495 118.724637s353.103448-37.869065 460.262668-118.724637v118.724637C972.006797 637.121439 773.705947 706.718641 563.174413 716.441779z m0 307.558221H460.825587c-210.838581-9.723138-409.088256-79.32034-409.088256-203.674163v-118.724638c107.15922 80.855572 284.12034 118.724638 460.211495 118.724638s353.103448-37.869065 460.262668-118.724638v118.724638c-0.204698 124.353823-198.505547 193.951024-409.037081 203.674163zM511.181209 0c253.927436 0 459.802099 91.602199 459.802099 205.209395s-205.874663 204.697651-459.802099 204.697651S51.430285 318.304848 51.430285 205.209395 257.253773 0 511.181209 0z" fill="#ffffff" p-id="9766"></path></svg>