<?xml version="1.0" standalone="no"?><!DOCTYPE svg PUBLIC "-//W3C//DTD SVG 1.1//EN" "http://www.w3.org/Graphics/SVG/1.1/DTD/svg11.dtd"><svg t="1773456948876" class="icon" viewBox="0 0 1024 1024" version="1.1" xmlns="http://www.w3.org/2000/svg" p-id="8725" width="32" height="32" xmlns:xlink="http://www.w3.org/1999/xlink"><path d="M277.942857 409.6c146.285714 36.571429 329.142857 36.571429 475.428572 0S987.428571 299.885714 987.428571 219.428571C987.428571 95.085714 775.314286 0 512 0S36.571429 102.4 36.571429 219.428571c0 80.457143 87.771429 153.6 241.371428 190.171429zM512 797.257143c-204.8 0-373.028571-58.514286-446.171429-138.971429-21.942857 21.942857-29.257143 51.2-29.257142 80.457143 0 117.028571 212.114286 219.428571 475.428571 219.428572s475.428571-95.085714 475.428571-219.428572c0-29.257143-14.628571-51.2-29.257142-80.457143-73.142857 80.457143-241.371429 138.971429-446.171429 138.971429z" fill="#e7614f" p-id="8726"></path><path d="M512 533.942857c-204.8 0-373.028571-58.514286-446.171429-138.971428-21.942857 29.257143-29.257143 51.2-29.257142 80.457142 0 117.028571 212.114286 219.428571 475.428571 219.428572s475.428571-95.085714 475.428571-219.428572c0-29.257143-14.628571-51.2-29.257142-80.457142-73.142857 80.457143-241.371429 138.971429-446.171429 138.971428z" fill="#e7614f" p-id="8727"></path></svg>