<?xml version="1.0" standalone="no"?><!DOCTYPE svg PUBLIC "-//W3C//DTD SVG 1.1//EN" "http://www.w3.org/Graphics/SVG/1.1/DTD/svg11.dtd"><svg t="1774358118979" class="icon" viewBox="0 0 1024 1024" version="1.1" xmlns="http://www.w3.org/2000/svg" p-id="4792" xmlns:xlink="http://www.w3.org/1999/xlink" width="64" height="64"><path d="M630.743142 480.0798l205.566085-54.902743c-15.321696-56.179551-44.688279-108.528678-86.822943-150.663341L598.822943 425.177057a119.253865 119.253865 0 0 0-56.179551-31.920199l54.902743-205.566085c-28.089776-7.660848-57.456359-11.491272-86.822943-11.491272s-58.733167 3.830424-86.822943 11.491272l54.902744 205.566085c-20.428928 5.107232-39.581047 16.598504-56.179552 31.920199L271.9601 274.513716c-43.411471 43.411471-72.778055 95.760599-86.822943 150.663341l205.566085 54.902743c-5.107232 21.705736-5.107232 43.411471 0 65.117207L185.137157 600.099751c15.321696 54.902743 43.411471 107.25187 86.822943 150.663341L422.623441 600.099751c16.598504 16.598504 35.750623 26.812968 56.179552 31.920199l-54.902744 205.566085c28.089776 7.660848 57.456359 11.491272 86.822943 11.491272s58.733167-3.830424 86.822943-11.491272l-54.902743-205.566085c20.428928-5.107232 39.581047-16.598504 56.179551-31.920199l150.663341 150.663341c42.134663-42.134663 72.778055-94.483791 86.822943-150.663341l-205.566085-54.902744c6.38404-21.705736 6.38404-43.411471 0-65.117207zM586.054863 587.331671c-40.857855 40.857855-108.528678 40.857855-149.386534 0-40.857855-40.857855-40.857855-108.528678 0-149.386534 15.321696-15.321696 35.750623-25.53616 56.179551-29.366583l19.15212-98.314215 20.428928 98.314215c20.428928 3.830424 39.581047 14.044888 54.902743 29.366583 39.581047 40.857855 39.581047 108.528678-1.276808 149.386534z" fill="#CD1130" p-id="4793"></path><path d="M510.723192 2.553616C228.548628 2.553616 0 231.102244 0 513.276808s228.548628 510.723192 510.723192 510.723192 510.723192-228.548628 510.723192-510.723192S792.897756 2.553616 510.723192 2.553616z m270.683292 781.406484C708.628429 855.461347 612.86783 895.042394 510.723192 895.042394S312.817955 855.461347 240.0399 783.9601C167.261845 711.182045 127.680798 615.421446 127.680798 513.276808s39.581047-197.905237 112.359102-270.683292c72.778055-72.778055 168.538653-112.359102 270.683292-112.359102s197.905237 39.581047 270.683292 112.359102c72.778055 72.778055 112.359102 168.538653 112.359102 270.683292s-39.581047 197.905237-112.359102 270.683292zM749.486284 750.763092z" fill="#CD1130" p-id="4794"></path></svg>
